<mxfile host="app.diagrams.net" modified="2021-10-14T17:13:29.938Z" agent="5.0 (X11)" etag="ZoXRnpWpro8lsL_x9Q3M" version="15.5.2" type="github">
  <diagram id="YZV39YvzYVO9GJUBDcFP" name="Page-1">
    <mxGraphModel dx="548" dy="563" grid="1" gridSize="10" guides="1" tooltips="1" connect="1" arrows="1" fold="1" page="1" pageScale="1" pageWidth="850" pageHeight="1100" math="0" shadow="0">
      <root>
        <mxCell id="0" />
        <mxCell id="1" parent="0" />
        <mxCell id="ZC-AyXRhmPSGSsGeXLF2-1" value="" style="shape=cylinder3;whiteSpace=wrap;html=1;boundedLbl=1;backgroundOutline=1;size=15;" vertex="1" parent="1">
          <mxGeometry x="670" y="400" width="60" height="80" as="geometry" />
        </mxCell>
        <mxCell id="ZC-AyXRhmPSGSsGeXLF2-9" style="edgeStyle=orthogonalEdgeStyle;rounded=0;orthogonalLoop=1;jettySize=auto;html=1;exitX=1;exitY=0.5;exitDx=0;exitDy=0;entryX=0;entryY=0.5;entryDx=0;entryDy=0;entryPerimeter=0;" edge="1" parent="1" source="ZC-AyXRhmPSGSsGeXLF2-2" target="ZC-AyXRhmPSGSsGeXLF2-1">
          <mxGeometry relative="1" as="geometry" />
        </mxCell>
        <mxCell id="ZC-AyXRhmPSGSsGeXLF2-2" value="User Broker" style="shape=process;whiteSpace=wrap;html=1;backgroundOutline=1;" vertex="1" parent="1">
          <mxGeometry x="520" y="410" width="120" height="60" as="geometry" />
        </mxCell>
        <mxCell id="ZC-AyXRhmPSGSsGeXLF2-8" style="edgeStyle=orthogonalEdgeStyle;rounded=0;orthogonalLoop=1;jettySize=auto;html=1;exitX=1;exitY=0.5;exitDx=0;exitDy=0;entryX=0;entryY=0.5;entryDx=0;entryDy=0;" edge="1" parent="1" source="ZC-AyXRhmPSGSsGeXLF2-3" target="ZC-AyXRhmPSGSsGeXLF2-2">
          <mxGeometry relative="1" as="geometry" />
        </mxCell>
        <mxCell id="ZC-AyXRhmPSGSsGeXLF2-3" value="Foundation Service" style="shape=process;whiteSpace=wrap;html=1;backgroundOutline=1;" vertex="1" parent="1">
          <mxGeometry x="360" y="410" width="120" height="60" as="geometry" />
        </mxCell>
        <mxCell id="ZC-AyXRhmPSGSsGeXLF2-4" value="Password Broker" style="shape=process;whiteSpace=wrap;html=1;backgroundOutline=1;" vertex="1" parent="1">
          <mxGeometry x="520" y="520" width="120" height="60" as="geometry" />
        </mxCell>
        <mxCell id="ZC-AyXRhmPSGSsGeXLF2-6" style="edgeStyle=orthogonalEdgeStyle;rounded=0;orthogonalLoop=1;jettySize=auto;html=1;exitX=1;exitY=0.5;exitDx=0;exitDy=0;entryX=0;entryY=0.5;entryDx=0;entryDy=0;" edge="1" parent="1" source="ZC-AyXRhmPSGSsGeXLF2-5" target="ZC-AyXRhmPSGSsGeXLF2-3">
          <mxGeometry relative="1" as="geometry" />
        </mxCell>
        <mxCell id="ZC-AyXRhmPSGSsGeXLF2-7" style="edgeStyle=orthogonalEdgeStyle;rounded=0;orthogonalLoop=1;jettySize=auto;html=1;exitX=1;exitY=0.5;exitDx=0;exitDy=0;entryX=0;entryY=0.5;entryDx=0;entryDy=0;" edge="1" parent="1" source="ZC-AyXRhmPSGSsGeXLF2-5" target="ZC-AyXRhmPSGSsGeXLF2-4">
          <mxGeometry relative="1" as="geometry">
            <Array as="points">
              <mxPoint x="320" y="500" />
              <mxPoint x="320" y="550" />
            </Array>
          </mxGeometry>
        </mxCell>
        <mxCell id="ZC-AyXRhmPSGSsGeXLF2-5" value="Orchestrator" style="shape=process;whiteSpace=wrap;html=1;backgroundOutline=1;" vertex="1" parent="1">
          <mxGeometry x="160" y="470" width="120" height="60" as="geometry" />
        </mxCell>
      </root>
    </mxGraphModel>
  </diagram>
</mxfile>
